<svg width="50" height="50" viewBox="0 0 50 50" fill="none" xmlns="http://www.w3.org/2000/svg">
<path d="M33.8419 18.6319L27.4473 24.9375L33.8419 31.2431C34.0199 31.4098 34.1618 31.6111 34.2588 31.8348C34.3558 32.0585 34.4058 32.2997 34.4058 32.5434C34.4058 32.7872 34.3558 33.0284 34.2588 33.2521C34.1618 33.4758 34.0199 33.6771 33.8419 33.8438C33.6755 34.0089 33.4781 34.1395 33.2611 34.2281C33.0441 34.3167 32.8117 34.3617 32.5773 34.3603C32.11 34.3584 31.6622 34.1728 31.3304 33.8438L24.9357 27.4491L18.6301 33.8438C18.2983 34.1728 17.8505 34.3584 17.3832 34.3603C17.1488 34.3617 16.9164 34.3167 16.6994 34.2281C16.4823 34.1395 16.285 34.0089 16.1185 33.8438C15.7868 33.51 15.6005 33.0586 15.6005 32.588C15.6005 32.1174 15.7868 31.6659 16.1185 31.3322L22.4241 24.9375L16.1185 18.6319C15.8267 18.2911 15.6742 17.8528 15.6915 17.4045C15.7088 16.9562 15.8947 16.531 16.2119 16.2137C16.5291 15.8965 16.9544 15.7107 17.4027 15.6933C17.851 15.676 18.2893 15.8285 18.6301 16.1203L24.9357 22.4259L31.2413 16.1203C31.4062 15.9496 31.6032 15.813 31.8209 15.7183C32.0386 15.6237 32.2728 15.5728 32.5102 15.5687C32.7475 15.5645 32.9833 15.6072 33.2042 15.6942C33.4251 15.7812 33.6267 15.9109 33.7974 16.0758C33.9682 16.2407 34.1048 16.4376 34.1994 16.6553C34.2941 16.873 34.3449 17.1073 34.3491 17.3446C34.3532 17.582 34.3106 17.8178 34.2235 18.0387C34.1365 18.2596 34.0069 18.4611 33.8419 18.6319ZM42.5701 42.5719C39.0824 46.0592 34.639 48.434 29.8016 49.396C24.9643 50.358 19.9503 49.864 15.3937 47.9765C10.8372 46.089 6.9426 42.8927 4.20255 38.7918C1.46249 34.6909 0 29.8696 0 24.9375C0 20.0054 1.46249 15.1841 4.20255 11.0832C6.9426 6.98235 10.8372 3.78604 15.3937 1.89851C19.9503 0.0109738 24.9643 -0.483021 29.8016 0.478992C34.639 1.441 39.0824 3.81582 42.5701 7.30314C44.886 9.61883 46.7231 12.368 47.9765 15.3938C49.2299 18.4195 49.875 21.6625 49.875 24.9375C49.875 28.2126 49.2299 31.4555 47.9765 34.4813C46.7231 37.507 44.886 40.2562 42.5701 42.5719ZM40.0585 9.8147C37.0662 6.83278 33.2574 4.80437 29.1131 3.98563C24.9688 3.16688 20.6748 3.59451 16.7734 5.21451C12.8719 6.83451 9.53799 9.57423 7.19255 13.0877C4.84712 16.6012 3.59537 20.7309 3.59537 24.9553C3.59537 29.1797 4.84712 33.3094 7.19255 36.8229C9.53799 40.3364 12.8719 43.0761 16.7734 44.6961C20.6748 46.3161 24.9688 46.7438 29.1131 45.925C33.2574 45.1063 37.0662 43.0779 40.0585 40.0959C42.0512 38.1101 43.6323 35.7505 44.7112 33.1523C45.79 30.5542 46.3454 27.7686 46.3454 24.9553C46.3454 22.1421 45.79 19.3565 44.7112 16.7583C43.6323 14.1602 42.0512 11.8005 40.0585 9.8147Z" fill="white"/>
</svg>
