<?xml version="1.0" encoding="utf-8"?><svg viewBox="0 0 2000 2000" xmlns="http://www.w3.org/2000/svg" xmlns:xlink="http://www.w3.org/1999/xlink"><style>:root>svg{display:none}:root>svg:target{display:block}</style><svg fill="none" viewBox="0 0 70 70" id="features--delivery-speed" xmlns="http://www.w3.org/2000/svg"><path d="M41.147 48.229h-3.925a.569.569 0 0 1-.51-.325l-2.806-5.993a4.433 4.433 0 0 0-3.992-2.536H17.533a4.434 4.434 0 0 0-3.995 2.539L10.736 47.9a.569.569 0 0 1-.514.328H8.79a4.418 4.418 0 0 0-4.414 4.412v6.081a2.756 2.756 0 0 0 2.753 2.754h2.344a5.239 5.239 0 0 0 10.248 0h10.496a5.25 5.25 0 0 0 10.247 0h2.344a2.756 2.756 0 0 0 2.753-2.754v-6.08a4.418 4.418 0 0 0-4.413-4.413Zm-26.55 15.209a3.055 3.055 0 1 1 0-6.11 3.055 3.055 0 0 1 0 6.11Zm20.744 0a3.055 3.055 0 1 1 0-6.11 3.055 3.055 0 0 1 0 6.11Zm8.033-4.715a.574.574 0 0 1-.566.566h-2.344a5.25 5.25 0 0 0-10.248 0H19.72a5.25 5.25 0 0 0-10.247 0H7.128a.573.573 0 0 1-.566-.567v-6.08a2.227 2.227 0 0 1 2.226-2.226h1.435a2.767 2.767 0 0 0 2.493-1.585l2.803-5.988a2.238 2.238 0 0 1 2.014-1.28h12.381a2.236 2.236 0 0 1 2.013 1.278l2.522 5.388H23.567a.57.57 0 0 1-.512-.327l-1.597-3.413a1.093 1.093 0 0 0-1.98.928l1.596 3.412a2.763 2.763 0 0 0 2.494 1.586h12.983c.443-.041 4.063.028 4.597 0a2.227 2.227 0 0 1 2.225 2.226v6.082ZM56.39 4.375a9.245 9.245 0 0 0-9.235 9.235c0 5.24 5.312 11.612 7.597 14.107a2.234 2.234 0 0 0 3.275 0c2.285-2.495 7.597-8.866 7.597-14.107a9.245 9.245 0 0 0-9.234-9.235Zm-.025 21.865c-1.647-1.8-7.023-8.03-7.023-12.63a7.047 7.047 0 0 1 14.094 0c0 4.6-5.375 10.83-7.07 12.63Z" fill="#D3001F"/><path d="M56.392 9.234a4.375 4.375 0 1 0 0 8.75 4.375 4.375 0 0 0 0-8.75Zm0 6.563a2.188 2.188 0 1 1 0-4.376 2.188 2.188 0 0 1 0 4.376Zm-12.52-3.285h-5.47a1.094 1.094 0 0 0 0 2.188h5.47a1.094 1.094 0 0 0 0-2.188ZM41.88 33.906A1.094 1.094 0 0 0 42.974 35h5.47a1.094 1.094 0 1 0 0-2.188h-5.47a1.094 1.094 0 0 0-1.093 1.094ZM9.484 31.912C8.39 34.09 14.177 35.05 15.63 35a1.093 1.093 0 1 0-.011-2.188 9.05 9.05 0 0 1-4.635-1.278 1.096 1.096 0 0 0-1.501.378Zm49.118 4.324a1.096 1.096 0 0 0 1.49-.413c1.045-2.18-4.74-3.042-6.179-3.01a1.095 1.095 0 0 0-.774 1.866 1.095 1.095 0 0 0 .773.32 9.558 9.558 0 0 1 4.69 1.237Zm5.208 12.313a1.091 1.091 0 0 0-1.48.453 9.478 9.478 0 0 1-1.69 2.278c-.665.902-2.709 1.401-1.93 2.8 1.085 1.385 2.59-.521 3.476-1.253.787-.958 3.28-3.211 1.624-4.278Zm-1.36-10.428a1.094 1.094 0 0 0-.372 1.501 9.534 9.534 0 0 1 1.356 4.654 1.093 1.093 0 1 0 2.188-.057c-.004-1.43-1.02-7.202-3.172-6.098ZM10.735 13.627c-1.288.547-6.141 4.005-4.193 5.453a1.094 1.094 0 0 0 1.516-.31 9.09 9.09 0 0 1 3.629-3.173 1.094 1.094 0 0 0-.952-1.97Zm-6.348 9.631c-.116 1.431.593 7.277 2.819 6.275a1.094 1.094 0 0 0 .441-1.483 9.04 9.04 0 0 1-1.083-4.29c.348-1.662-1.925-2.211-2.177-.502Zm50.038 30.805c-.172.01-.349.01-.525.012h-4.884a1.094 1.094 0 0 0 0 2.187c.416-.004 5.261.017 5.53-.016a1.093 1.093 0 0 0-.121-2.183Zm-34.42-20.157A1.094 1.094 0 0 0 21.1 35h5.468a1.094 1.094 0 1 0 0-2.188H21.1a1.094 1.094 0 0 0-1.093 1.094Zm12.929-21.394h-5.469a1.094 1.094 0 0 0 0 2.188h5.469a1.094 1.094 0 0 0 0-2.188Zm-1.99 21.394A1.094 1.094 0 0 0 32.036 35h5.469a1.094 1.094 0 1 0 0-2.188h-5.469a1.094 1.094 0 0 0-1.094 1.094Zm-8.948-21.394h-5.468a1.094 1.094 0 0 0 0 2.188h5.468a1.094 1.094 0 0 0 0-2.188Z" fill="#D3001F"/></svg><svg fill="none" viewBox="0 0 70 70" id="features--delivery-time" xmlns="http://www.w3.org/2000/svg"><path d="M61.607 22.143a1.094 1.094 0 0 0-.56 1.442c11.24 26.18-18.504 50.799-42.107 34.884a1.154 1.154 0 0 0-1.466.206 4.31 4.31 0 0 1-4.112 1.507c-5.211-.966-4.535-8.6.758-8.677a4.374 4.374 0 0 1 4.091 2.849 1.094 1.094 0 1 0 2.053-.756 6.59 6.59 0 0 0-10.327-2.764C5.64 54.206 7.57 61.552 12.99 62.337a6.486 6.486 0 0 0 5.5-1.578A30.087 30.087 0 0 0 35 65.625c21.7.343 37.078-23.22 28.05-42.922a1.094 1.094 0 0 0-1.442-.56ZM7.95 47.95a1.099 1.099 0 0 0 1-1.536C-1.408 22.88 22.889-1.408 46.417 8.954a28.195 28.195 0 0 1 3.725 2.011 6.527 6.527 0 0 0-.825 3.156 6.606 6.606 0 0 0 6.563 6.563c7.96-.165 8.972-11.515 1.124-13.022a1.094 1.094 0 1 0-.367 2.157 4.373 4.373 0 1 1-4.057 1.435 1.146 1.146 0 0 0-.28-1.522C32.371-4.212 4.161 10.645 4.374 35A30.265 30.265 0 0 0 6.95 47.297a1.094 1.094 0 0 0 1.002.653Z" fill="#D3001F"/><path d="M35 16.406A18.615 18.615 0 0 0 16.406 35c1.022 24.667 36.17 24.66 37.188 0A18.615 18.615 0 0 0 35 16.406Zm1.094 34.946v-2.604a1.094 1.094 0 0 0-2.188 0v2.601a16.404 16.404 0 0 1-15.258-15.255h2.602a1.094 1.094 0 0 0 0-2.188h-2.602a16.405 16.405 0 0 1 15.258-15.258v2.602a1.094 1.094 0 0 0 2.188 0v-2.602a16.405 16.405 0 0 1 15.258 15.258h-2.604a1.094 1.094 0 0 0 0 2.188h2.601a16.404 16.404 0 0 1-15.255 15.258Z" fill="#D3001F"/><path d="M35 25.156a1.094 1.094 0 0 0-1.094 1.094v8.297l-3.215 3.216a1.093 1.093 0 1 0 1.547 1.545l3.534-3.534c.205-.206.32-.484.322-.774v-8.75A1.093 1.093 0 0 0 35 25.156Z" fill="#D3001F"/></svg><svg fill="none" viewBox="0 0 81 81" id="features--money" xmlns="http://www.w3.org/2000/svg"><path d="M72.14 17.719H17.403a3.8 3.8 0 0 0-3.797 3.797v4.752H8.86a3.801 3.801 0 0 0-3.796 3.797v29.42a3.8 3.8 0 0 0 3.796 3.796h54.739a3.8 3.8 0 0 0 3.796-3.797v-4.752h4.747a3.801 3.801 0 0 0 3.796-3.797v-29.42a3.8 3.8 0 0 0-3.796-3.796Zm-17.327 11.08a11.406 11.406 0 0 0 10.05 10.05v11.85a11.406 11.406 0 0 0-10.05 10.051H17.644A11.406 11.406 0 0 0 7.594 50.7V38.85a11.405 11.405 0 0 0 10.05-10.05h37.169Zm10.05 7.493a8.865 8.865 0 0 1-7.492-7.493h6.227a1.267 1.267 0 0 1 1.265 1.266v6.227ZM8.86 28.799c.085.007 5.97-.005 6.043 0h.184a8.866 8.866 0 0 1-7.492 7.493v-6.227a1.267 1.267 0 0 1 1.265-1.266ZM7.594 59.484v-6.227a8.866 8.866 0 0 1 7.492 7.493H8.86a1.267 1.267 0 0 1-1.265-1.266Zm57.27 0a1.267 1.267 0 0 1-1.266 1.266H57.37a8.864 8.864 0 0 1 7.492-7.492v6.226Zm8.542-8.549a1.266 1.266 0 0 1-1.265 1.266h-4.747V30.065a3.8 3.8 0 0 0-3.796-3.797H16.137v-4.752a1.267 1.267 0 0 1 1.265-1.266h54.739a1.267 1.267 0 0 1 1.265 1.266v29.42Z" fill="#D3001F"/><path d="M36.23 49.733a1.848 1.848 0 0 1-1.847-1.847 1.265 1.265 0 1 0-2.531 0 4.368 4.368 0 0 0 3.112 4.17c-.295 2.347 2.822 2.358 2.531 0a4.371 4.371 0 0 0-1.266-8.548 1.846 1.846 0 1 1 1.847-1.845 1.266 1.266 0 1 0 2.531 0 4.37 4.37 0 0 0-3.112-4.169c.295-2.348-2.822-2.359-2.531 0a4.371 4.371 0 0 0 1.265 8.546 1.847 1.847 0 1 1 0 3.693Z" fill="#D3001F"/><path d="M36.227 58.063a13.304 13.304 0 0 0 13.289-13.289c-.73-17.63-25.85-17.624-26.578 0a13.304 13.304 0 0 0 13.289 13.289Zm0-24.047a10.771 10.771 0 0 1 10.757 10.758c-.54 14.252-20.976 14.248-21.515 0a10.77 10.77 0 0 1 10.758-10.758Z" fill="#D3001F"/></svg><svg fill="none" viewBox="0 0 85 85" id="features--natural-seafood" xmlns="http://www.w3.org/2000/svg"><path d="M78.36 30.324a14.676 14.676 0 0 0-14.895 11.634 51.711 51.711 0 0 0-1.397-1.738 25.455 25.455 0 0 0-49.233-4.58 47.077 47.077 0 0 0-7.347 9.228 1.33 1.33 0 0 0 0 1.319c1.896 4.237 18.753 25.806 38.9 17.918a1.328 1.328 0 1 0-.986-2.467c-7.04 2.929-15.732.997-21.373-2.5 6.221-13.13-1.758-7.743 11.84-6.855a20.028 20.028 0 0 0 14.161-5.821 1.336 1.336 0 0 0 0-1.88 19.966 19.966 0 0 0-22.998-3.747 29.031 29.031 0 0 0-3.001-8.925 26.264 26.264 0 0 1 16.128-3.8 1.328 1.328 0 0 0 .26-2.643 29.779 29.779 0 0 0-20.517 5.892 22.786 22.786 0 0 1 40.446 4.922 50.522 50.522 0 0 0-11.922-8.425c-.922-.522-2.342-1.186-2.936.116a1.328 1.328 0 0 0 .67 1.753 46.312 46.312 0 0 1 18.627 15.803 45.118 45.118 0 0 1-7.402 8.358 51.236 51.236 0 0 1-6.413 4.846 1.392 1.392 0 0 0-.319 1.756 15.038 15.038 0 0 0 12.087 6.006 1.328 1.328 0 0 0 1.328-1.328 15.074 15.074 0 0 0-3.959-10.2 44.313 44.313 0 0 0 5.358-5.874 14.633 14.633 0 0 0 14.302 11.633c.917.102 1.902-.238 1.918-1.328a14.676 14.676 0 0 0-8.558-13.873 14.619 14.619 0 0 0 8.558-13.281c.1-.93-.239-1.9-1.328-1.92ZM33.911 41.387a17.207 17.207 0 0 1 11.22 4.136 17.388 17.388 0 0 1-19.765 1.849 29.14 29.14 0 0 0 0-3.703 17.106 17.106 0 0 1 8.545-2.283v.001Zm-14.12 16.31a45.899 45.899 0 0 1-11.59-12.17 45.803 45.803 0 0 1 11.59-12.175 26.437 26.437 0 0 1 0 24.345Zm31.967 2.337a49.736 49.736 0 0 0 4.386-3.294 12.427 12.427 0 0 1 3.19 7.02 12.382 12.382 0 0 1-7.576-3.726Zm25.248-1.992A11.969 11.969 0 0 1 65.84 46.876a11.969 11.969 0 0 1 11.167 11.166ZM65.84 44.17a11.97 11.97 0 0 1 11.166-11.167A11.97 11.97 0 0 1 65.84 44.171Z" fill="#D3001F"/><path d="M15.371 46.724a1.328 1.328 0 1 0 0-2.657 1.328 1.328 0 0 0 0 2.657Z" fill="#D3001F"/></svg><svg fill="none" viewBox="0 0 25 25" id="footer--map" xmlns="http://www.w3.org/2000/svg"><g clip-path="url(#apa)"><path d="M12.5 0a9.387 9.387 0 0 0-9.375 9.375c0 6.73 8.734 15.16 9.105 15.516a.386.386 0 0 0 .54 0c.37-.356 9.105-8.785 9.105-15.516A9.388 9.388 0 0 0 12.5 0Zm0 13.672a4.297 4.297 0 1 1 0-8.593 4.297 4.297 0 0 1 0 8.593Z" fill="#fff"/></g><defs><clipPath id="apa"><path fill="#fff" d="M0 0h25v25H0z"/></clipPath></defs></svg><svg fill="none" viewBox="0 0 25 25" id="footer--phone" xmlns="http://www.w3.org/2000/svg"><path d="M22.963 18.25c-.683-.573-4.687-3.109-5.353-2.992-.312.055-.551.322-1.191 1.085-.296.376-.621.727-.972 1.052a8.399 8.399 0 0 1-1.855-.687 11.484 11.484 0 0 1-5.3-5.302 8.403 8.403 0 0 1-.687-1.854 9.13 9.13 0 0 1 1.052-.972c.763-.64 1.03-.878 1.085-1.192.117-.667-2.422-4.67-2.992-5.353-.24-.283-.456-.473-.734-.473-.807 0-4.454 4.51-4.454 5.094 0 .048.079 4.742 6.008 10.774 6.032 5.93 10.726 6.008 10.774 6.008.584 0 5.093-3.647 5.093-4.454 0-.278-.19-.495-.474-.734Zm-4.994-6.531h1.562a6.257 6.257 0 0 0-6.25-6.25V7.03a4.692 4.692 0 0 1 4.688 4.688Z" fill="#fff"/><path d="M21.875 11.719h1.563A10.168 10.168 0 0 0 13.28 1.563v1.562a8.604 8.604 0 0 1 8.594 8.594Z" fill="#fff"/></svg><svg fill="none" viewBox="0 -1.5 25 25" id="header--cart" xmlns="http://www.w3.org/2000/svg"><path d="M8.105 14.649h13.233a.73.73 0 0 0 .704-.532l2.93-10.254a.732.732 0 0 0-.704-.933H6.415L5.89.574A.732.732 0 0 0 5.176 0H.732a.732.732 0 1 0 0 1.465h3.856l2.645 11.902a2.198 2.198 0 0 0-1.325 2.014 2.2 2.2 0 0 0 2.197 2.197h13.233a.732.732 0 1 0 0-1.465H8.105a.733.733 0 0 1 0-1.464Zm-.732 5.127a2.2 2.2 0 0 0 2.197 2.197 2.2 2.2 0 0 0 2.198-2.197 2.2 2.2 0 0 0-2.198-2.198 2.2 2.2 0 0 0-2.197 2.198Zm10.303 0a2.2 2.2 0 0 0 2.197 2.197 2.2 2.2 0 0 0 2.197-2.197 2.2 2.2 0 0 0-2.197-2.198 2.2 2.2 0 0 0-2.197 2.198Z" fill="#fff"/></svg><svg fill="none" viewBox="-2 0 19 19" id="header--map" xmlns="http://www.w3.org/2000/svg"><path d="M7.5 0C5.512.003 3.606.754 2.2 2.09.794 3.425.003 5.236 0 7.125c0 5.115 6.987 11.522 7.284 11.792A.318.318 0 0 0 7.5 19c.08 0 .158-.03.216-.083C8.012 18.647 15 12.24 15 7.125c-.003-1.889-.794-3.7-2.2-5.035C11.394.754 9.488.003 7.5 0Zm0 10.39c-.68 0-1.344-.19-1.91-.55a3.308 3.308 0 0 1-1.266-1.465 3.114 3.114 0 0 1-.195-1.887c.132-.634.46-1.215.94-1.672a3.497 3.497 0 0 1 1.76-.894 3.606 3.606 0 0 1 1.986.186 3.406 3.406 0 0 1 1.543 1.203 3.15 3.15 0 0 1 .58 1.814c-.001.866-.363 1.696-1.008 2.309a3.534 3.534 0 0 1-2.43.957Z" fill="#fff"/></svg><svg fill="none" viewBox="-2 0 19 19" id="header--nav-map" xmlns="http://www.w3.org/2000/svg"><path d="M7.5 0C5.512.003 3.606.754 2.2 2.09.794 3.425.003 5.236 0 7.125c0 5.115 6.987 11.522 7.284 11.792A.318.318 0 0 0 7.5 19c.08 0 .158-.03.216-.083C8.012 18.647 15 12.24 15 7.125c-.003-1.889-.794-3.7-2.2-5.035C11.394.754 9.488.003 7.5 0Zm0 10.39c-.68 0-1.344-.19-1.91-.55a3.308 3.308 0 0 1-1.266-1.465 3.114 3.114 0 0 1-.195-1.887c.132-.634.46-1.215.94-1.672a3.497 3.497 0 0 1 1.76-.894 3.606 3.606 0 0 1 1.986.186 3.406 3.406 0 0 1 1.543 1.203 3.15 3.15 0 0 1 .58 1.814c-.001.866-.363 1.696-1.008 2.309a3.534 3.534 0 0 1-2.43.957Z" fill="#d3001f"/></svg><svg fill="none" viewBox="0 0 17 17" id="header--nav-phone" xmlns="http://www.w3.org/2000/svg"><path d="M16.467 12.84c-.525-.44-3.607-2.392-4.12-2.302-.24.043-.423.248-.916.835-.227.289-.478.56-.748.81a6.47 6.47 0 0 1-1.427-.53 8.837 8.837 0 0 1-4.078-4.079 6.467 6.467 0 0 1-.529-1.427c.25-.27.52-.52.81-.748.587-.492.792-.675.835-.916.09-.514-1.864-3.594-2.302-4.12C3.808.147 3.64 0 3.426 0 2.806 0 0 3.47 0 3.92c0 .036.06 3.648 4.622 8.29 4.641 4.562 8.254 4.622 8.29 4.622.45 0 3.92-2.806 3.92-3.427 0-.214-.146-.38-.365-.565Zm-3.843-5.025h1.202a4.815 4.815 0 0 0-4.809-4.81v1.203a3.61 3.61 0 0 1 3.607 3.607Z" fill="#d3001f"/><path d="M15.63 7.815h1.202A7.824 7.824 0 0 0 9.018 0v1.202a6.62 6.62 0 0 1 6.612 6.613Z" fill="#d3001f"/></svg><svg fill="none" viewBox="0 -0.5 20 20" id="header--nav-time" xmlns="http://www.w3.org/2000/svg"><path d="M10 0C4.486 0 0 4.261 0 9.5S4.486 19 10 19s10-4.261 10-9.5S15.514 0 10 0Zm4.756 14.414a.837.837 0 0 1-.59.232.87.87 0 0 1-.588-.232L9.41 10.456a.787.787 0 0 1-.181-.257.754.754 0 0 1-.063-.303V4.75c0-.438.373-.792.833-.792.46 0 .833.354.833.792v4.818l3.923 3.726c.326.31.326.81 0 1.12Z" fill="#d3001f"/></svg><svg fill="none" viewBox="-11.5 0 52 52" id="header--next-arrow" xmlns="http://www.w3.org/2000/svg"><path d="M2.364 52A2.358 2.358 0 0 1 .18 50.54a2.362 2.362 0 0 1 .513-2.575L22.658 26 .693 4.035A2.363 2.363 0 1 1 4.035.693L27.67 24.328a2.363 2.363 0 0 1 0 3.342L4.035 51.307a2.358 2.358 0 0 1-1.671.692Z" fill="#fff"/></svg><svg fill="none" viewBox="0 0 17 17" id="header--phone" xmlns="http://www.w3.org/2000/svg"><path d="M16.467 12.84c-.525-.44-3.607-2.392-4.12-2.302-.24.043-.423.248-.916.835-.227.289-.478.56-.748.81a6.47 6.47 0 0 1-1.427-.53 8.837 8.837 0 0 1-4.078-4.079 6.467 6.467 0 0 1-.529-1.427c.25-.27.52-.52.81-.748.587-.492.792-.675.835-.916.09-.514-1.864-3.594-2.302-4.12C3.808.147 3.64 0 3.426 0 2.806 0 0 3.47 0 3.92c0 .036.06 3.648 4.622 8.29 4.641 4.562 8.254 4.622 8.29 4.622.45 0 3.92-2.806 3.92-3.427 0-.214-.146-.38-.365-.565Zm-3.843-5.025h1.202a4.815 4.815 0 0 0-4.809-4.81v1.203a3.61 3.61 0 0 1 3.607 3.607Z" fill="#fff"/><path d="M15.63 7.815h1.202A7.824 7.824 0 0 0 9.018 0v1.202a6.62 6.62 0 0 1 6.612 6.613Z" fill="#fff"/></svg><svg fill="none" viewBox="-11.5 0 52 52" id="header--prev-arrow" xmlns="http://www.w3.org/2000/svg"><path d="M26 0a2.357 2.357 0 0 1 2.183 1.46 2.361 2.361 0 0 1-.512 2.575L5.704 26 27.67 47.965a2.362 2.362 0 1 1-3.342 3.342L.692 27.671a2.363 2.363 0 0 1 0-3.342L24.328.693A2.356 2.356 0 0 1 26 0Z" fill="#fff"/></svg><svg fill="none" viewBox="0 -0.5 20 20" id="header--time" xmlns="http://www.w3.org/2000/svg"><path d="M10 0C4.486 0 0 4.261 0 9.5S4.486 19 10 19s10-4.261 10-9.5S15.514 0 10 0Zm4.756 14.414a.837.837 0 0 1-.59.232.87.87 0 0 1-.588-.232L9.41 10.456a.787.787 0 0 1-.181-.257.754.754 0 0 1-.063-.303V4.75c0-.438.373-.792.833-.792.46 0 .833.354.833.792v4.818l3.923 3.726c.326.31.326.81 0 1.12Z" fill="#fff"/></svg><svg fill="none" viewBox="-2 0 23 23" id="header--user" xmlns="http://www.w3.org/2000/svg"><path d="M9.5 12.437a4.644 4.644 0 0 0 4.563-4.274l.2-3.074a4.773 4.773 0 0 0-8.248-3.577 4.774 4.774 0 0 0-1.278 3.577l.2 3.074A4.644 4.644 0 0 0 9.5 12.437Z" fill="#fff"/><path d="m2.413 13.288-.08.024c-.129.04-3.058 1.06-2.163 6.273a.991.991 0 0 0 .505.71 20.01 20.01 0 0 0 8.709 2.179h.224a20.022 20.022 0 0 0 8.717-2.18.99.99 0 0 0 .505-.71c.895-5.212-2.034-6.232-2.163-6.272l-.08-.024a11.028 11.028 0 0 1-2.171-.734.992.992 0 0 0-.963.06l-1.466.935a4.626 4.626 0 0 1-4.974 0l-1.466-.935a.992.992 0 0 0-.963-.06c-.696.32-1.424.565-2.171.734Z" fill="#fff"/></svg><svg fill="none" viewBox="0 -7 37 37" id="icons--burger" xmlns="http://www.w3.org/2000/svg"><path d="M35.577 2.454H14.705c-.377 0-.74-.129-1.006-.36a1.148 1.148 0 0 1-.417-.867c0-.325.15-.637.417-.868.267-.23.629-.359 1.006-.359h20.872c.377 0 .74.13 1.006.36.267.23.417.542.417.867 0 .326-.15.638-.417.868-.267.23-.629.36-1.006.36ZM37 11.044c0-.325-.15-.637-.417-.867a1.546 1.546 0 0 0-1.006-.36H1.423c-.377 0-.74.13-1.006.36-.267.23-.417.542-.417.867 0 .326.15.638.417.868.267.23.629.36 1.006.36h34.154c.377 0 .74-.13 1.006-.36.267-.23.417-.542.417-.868Zm-13.282 9.818c0-.326-.15-.638-.417-.868a1.545 1.545 0 0 0-1.006-.36H1.423c-.377 0-.74.13-1.006.36-.267.23-.417.542-.417.868 0 .325.15.637.417.867.267.23.629.36 1.006.36h20.872c.377 0 .74-.13 1.006-.36.267-.23.417-.542.417-.867Z" fill="#fff"/></svg><svg fill="none" viewBox="0 0 50 50" id="icons--closeNavBtn" xmlns="http://www.w3.org/2000/svg"><path d="m33.842 18.632-6.395 6.305 6.395 6.306a1.782 1.782 0 0 1 0 2.6 1.78 1.78 0 0 1-1.265.517 1.781 1.781 0 0 1-1.247-.516l-6.394-6.395-6.306 6.395a1.781 1.781 0 0 1-2.511 0 1.782 1.782 0 0 1 0-2.512l6.305-6.395-6.305-6.305a1.782 1.782 0 0 1 2.511-2.512l6.306 6.306 6.305-6.306a1.81 1.81 0 0 1 2.958.535 1.808 1.808 0 0 1-.357 1.977Zm8.728 23.94A24.937 24.937 0 1 1 7.305 7.303 24.937 24.937 0 0 1 42.57 42.572ZM40.06 9.815A21.375 21.375 0 1 0 9.882 40.096 21.375 21.375 0 0 0 40.06 9.815Z" fill="#fff"/></svg><svg viewBox="-4.5 0 22 22" id="icons--facebook" xmlns="http://www.w3.org/2000/svg"><path d="M7.976 22H3.988a.945.945 0 0 1-1-1v-7H1a.946.946 0 0 1-1-1V9a.945.945 0 0 1 1-1h1.991V6a6 6 0 0 1 5.982-6h2.991a.945.945 0 0 1 1 1v4a.945.945 0 0 1-1 1H8.973v2h2.991a.829.829 0 0 1 .8.3 1 1 0 0 1 .2.9l-1 4a.975.975 0 0 1-1 .8H8.973v7a.945.945 0 0 1-.997 1ZM1.994 10v2h1.994a.945.945 0 0 1 1 1v7h1.991v-7a.945.945 0 0 1 1-1h2.193l.5-2H7.976a.945.945 0 0 1-1-1V6a2 2 0 0 1 1.997-2h1.993V2H8.973a4 4 0 0 0-3.988 4v3a.945.945 0 0 1-1 1H1.994Z" fill="#fff"/></svg><svg viewBox="0 0 22 22" id="icons--instagram" xmlns="http://www.w3.org/2000/svg"><path d="M16 22H6a6.007 6.007 0 0 1-6-6V6a6.007 6.007 0 0 1 6-6h10a6.007 6.007 0 0 1 6 6v10a6.006 6.006 0 0 1-6 6ZM6 2a4.005 4.005 0 0 0-4 4v10a4 4 0 0 0 4 4h10a4 4 0 0 0 4-4V6a4 4 0 0 0-4-4Zm5 14a4.877 4.877 0 0 1-3.2-1.213A5.181 5.181 0 0 1 6.1 11.7a5 5 0 0 1 .937-3.713A4.929 4.929 0 0 1 10.3 6a3.793 3.793 0 0 1 1.5 0 4.691 4.691 0 0 1 4.1 4.2 4.9 4.9 0 0 1-.9 3.7 4.986 4.986 0 0 1-3.3 2 1.706 1.706 0 0 1-.7.1Zm-.4-8a2.918 2.918 0 0 0-1.974 1.191A2.875 2.875 0 0 0 8.1 11.4a3.019 3.019 0 0 0 3.021 2.523 3.054 3.054 0 0 0 .379-.023 3.193 3.193 0 0 0 2-1.2 2.769 2.769 0 0 0 .4-2.2A2.976 2.976 0 0 0 11.4 8h-.8Zm5.9-1.5a1.026 1.026 0 0 1-1-1 .6.6 0 0 1 .1-.4c0-.1.107-.207.2-.3a.967.967 0 0 1 1.4 0c.1.1.2.2.2.3a.359.359 0 0 0 .037.131.657.657 0 0 1 .063.269.905.905 0 0 1-.3.7 1.076 1.076 0 0 1-.7.3Z" fill="#fff"/></svg><svg viewBox="0 -0.5 22 22" id="icons--linkedin" xmlns="http://www.w3.org/2000/svg"><path d="M21 21h-4a.947.947 0 0 1-1-1v-7a1 1 0 0 0-2 0v7a.947.947 0 0 1-1 1H9a.947.947 0 0 1-1-1v-7a7 7 0 1 1 14 0v7a.947.947 0 0 1-1 1Zm-6-11a2.934 2.934 0 0 1 3 3v6h2v-6a5 5 0 0 0-10 0v6h2v-6a2.934 2.934 0 0 1 3-3ZM5 21H1a.947.947 0 0 1-1-1V8a.947.947 0 0 1 1-1h4a.947.947 0 0 1 1 1v12a.947.947 0 0 1-1 1ZM2 9v10h2V9Zm1-3a2.934 2.934 0 0 1-3-3 2.934 2.934 0 0 1 3-3 2.934 2.934 0 0 1 3 3 2.935 2.935 0 0 1-3 3Zm0-4a.947.947 0 0 0-1 1 .947.947 0 0 0 1 1 .947.947 0 0 0 1-1 .947.947 0 0 0-1-1Z" fill="#fff"/></svg><svg viewBox="0 -2 24 24" id="icons--twitter" xmlns="http://www.w3.org/2000/svg"><path d="M8.208 20a15.732 15.732 0 0 1-7.683-2.112 1.02 1.02 0 0 1-.5-1.106 1.081 1.081 0 0 1 1-.7 11.415 11.415 0 0 0 4.89-1.005 9.63 9.63 0 0 1-4.79-8.045 12.6 12.6 0 0 1 1-5.431.866.866 0 0 1 .8-.6.961.961 0 0 1 .9.4A9.6 9.6 0 0 0 11 5.519 5.169 5.169 0 0 1 13 1.4 5.3 5.3 0 0 1 16.576 0a5.36 5.36 0 0 1 3.607 1.4 9.989 9.989 0 0 0 2.3-1.207 1.071 1.071 0 0 1 1.1 0 .956.956 0 0 1 .4 1.005 8.334 8.334 0 0 1-2 3.821v.5c0 5.6-2.437 10.18-6.685 12.57A13.645 13.645 0 0 1 8.208 20ZM3.418 4.111a8.283 8.283 0 0 0 4.99 10.056.941.941 0 0 1 .1 1.71 11.686 11.686 0 0 1-3.592 1.71 13.831 13.831 0 0 0 3.273.4 12.08 12.08 0 0 0 6.106-1.609c3.615-2.125 5.688-6.084 5.688-10.861a1.293 1.293 0 0 0-.1-.6 1.406 1.406 0 0 1 .3-.9c.1-.152.2-.28.3-.4s.2-.25.3-.4a1.431 1.431 0 0 1-.351.1 1.438 1.438 0 0 0-.348.1.752.752 0 0 1-.24.038 1.092 1.092 0 0 1-.758-.339 3.464 3.464 0 0 0-2.619-1.178 3.3 3.3 0 0 0-2.271.876A3.608 3.608 0 0 0 13 5.519v1.005a1.085 1.085 0 0 1-1 1.006c-.117 0-.235.005-.352.005a11.667 11.667 0 0 1-8.23-3.424Z" fill="#fff"/></svg><svg fill="none" viewBox="0 0 25 25" id="logo" xmlns="http://www.w3.org/2000/svg"><path d="M22.963 18.25c-.683-.573-4.687-3.109-5.353-2.992-.312.055-.551.322-1.191 1.085-.296.376-.621.727-.972 1.052a8.399 8.399 0 0 1-1.855-.687 11.484 11.484 0 0 1-5.3-5.302 8.403 8.403 0 0 1-.687-1.854 9.13 9.13 0 0 1 1.052-.972c.763-.64 1.03-.878 1.085-1.192.117-.667-2.422-4.67-2.992-5.353-.24-.283-.456-.473-.734-.473-.807 0-4.454 4.51-4.454 5.094 0 .048.079 4.742 6.008 10.774 6.032 5.93 10.726 6.008 10.774 6.008.584 0 5.093-3.647 5.093-4.454 0-.278-.19-.495-.474-.734Zm-4.994-6.531h1.562a6.257 6.257 0 0 0-6.25-6.25V7.03a4.692 4.692 0 0 1 4.688 4.688Z" fill="#fff"/><path d="M21.875 11.719h1.563A10.168 10.168 0 0 0 13.28 1.563v1.562a8.604 8.604 0 0 1 8.594 8.594Z" fill="#fff"/></svg><svg fill="none" viewBox="-12.5 0 54 54" id="main--about--next-arrow" xmlns="http://www.w3.org/2000/svg"><path d="M2.364 53.362a2.329 2.329 0 0 1-1.671-.701A2.394 2.394 0 0 1 0 50.969a2.418 2.418 0 0 1 .693-1.692l21.965-22.243L.693 4.79a2.413 2.413 0 0 1 0-3.385 2.342 2.342 0 0 1 3.342 0L27.67 25.341a2.395 2.395 0 0 1 .693 1.693 2.418 2.418 0 0 1-.693 1.692L4.035 52.66a2.354 2.354 0 0 1-1.671.701Z" fill="#fff"/></svg><svg fill="none" viewBox="-12.5 0 54 54" id="main--about--prev-arrow" xmlns="http://www.w3.org/2000/svg"><path d="M26 .705a2.331 2.331 0 0 1 1.67.701 2.393 2.393 0 0 1 .693 1.693 2.418 2.418 0 0 1-.692 1.692L5.704 27.034 27.67 49.277c.924.935.924 2.45 0 3.384a2.342 2.342 0 0 1-3.342 0L.692 28.726A2.393 2.393 0 0 1 0 27.034a2.418 2.418 0 0 1 .693-1.692L24.328 1.405A2.354 2.354 0 0 1 26 .705Z" fill="#000"/></svg><svg fill="none" viewBox="-8 0 35 35" id="main--menu--arrow" xmlns="http://www.w3.org/2000/svg"><path d="M1.583 34.833a1.579 1.579 0 0 1-1.462-.978 1.582 1.582 0 0 1 .343-1.725l14.714-14.714L.464 2.703A1.582 1.582 0 1 1 2.703.463l15.833 15.834a1.582 1.582 0 0 1 0 2.239L2.703 34.369a1.58 1.58 0 0 1-1.12.464Z" fill="#626262"/></svg><svg fill="none" viewBox="0 -2 32 32" id="main--menu--cart" xmlns="http://www.w3.org/2000/svg"><path d="M10.794 18.164h16.39a.904.904 0 0 0 .873-.659L31.686 4.79a.908.908 0 0 0-.872-1.157H8.699L8.051.71A.908.908 0 0 0 7.165 0H1.661a.907.907 0 0 0 0 1.816h4.776l3.276 14.759a2.726 2.726 0 0 0-1.64 2.498 2.726 2.726 0 0 0 2.72 2.724h16.392a.907.907 0 1 0 0-1.816H10.794a.909.909 0 0 1 0-1.817Zm-.907 6.358a2.726 2.726 0 0 0 2.722 2.724c1.5 0 2.721-1.222 2.721-2.724a2.726 2.726 0 0 0-2.721-2.725 2.726 2.726 0 0 0-2.722 2.725Zm12.762 0a2.726 2.726 0 0 0 2.721 2.724c1.501 0 2.722-1.222 2.722-2.724a2.726 2.726 0 0 0-2.722-2.725 2.726 2.726 0 0 0-2.721 2.725Z" fill="#fff"/></svg><svg fill="none" viewBox="0 0 24 24" id="main--rewievs--star" xmlns="http://www.w3.org/2000/svg"><path d="m23.362 8.566-7.378-1.128L12.677.396c-.247-.526-1.11-.526-1.357 0L8.014 7.438.636 8.566A.75.75 0 0 0 .213 9.83l5.36 5.495-1.267 7.767a.75.75 0 0 0 1.103.777L12 20.227l6.59 3.642a.75.75 0 0 0 1.103-.776l-1.267-7.768 5.36-5.493a.75.75 0 0 0-.423-1.267Z" fill="#FFC107"/></svg><svg fill="none" viewBox="0 0 24 24" id="main--rewievs--star-w-o-fill" xmlns="http://www.w3.org/2000/svg"><path d="M23.287 9.06a.25.25 0 0 1 .123.056l.322-.383-.322.383a.25.25 0 0 1 .083.247l.487.112-.487-.112a.25.25 0 0 1-.065.119l-5.36 5.494-.177.181.04.249 1.268 7.767a.25.25 0 0 1-.368.259l-6.59-3.643-.242-.134-.242.134-6.59 3.642a.25.25 0 0 1-.367-.259l1.267-7.767.04-.249-.176-.18L.571 9.48a.25.25 0 0 1 .141-.421L8.09 7.933l.263-.04.114-.242L11.773.607c.02-.045.09-.107.226-.107.135 0 .204.062.226.107l3.306 7.044.114.241.264.04 7.378 1.128Z" stroke="#FFC107"/></svg></svg>